PathFileType  4	(X/Y/Z) C:\Users\antoi\Documents\MyRepositories\mobilecap\ResultsAnalysis
DataRate	CameraRate	NumFrames	NumMarkers	Units	OrigDataRate	OrigDataStartFrame	OrigNumFrames
100.0	100.0	4	51	mm	100.0	241	275
Frame#	Time	r_knee			r_shank_antsup			r_ankle			r_calc			r_5meta			r_toe			L_knee			L_shank_antsup			L_ankle			L_calc			L_5meta			L_toe			r_sh2			r_sh3			r_sh4			L_sh2			L_sh3			r_thigh1			r_thigh2			r_thigh3			r_thigh4			r_thigh5			L_thigh1			L_thigh2			L_thigh3			L_thigh4			r.ASIS			r.PSIS			L.ASIS			L.PSIS			C7			R_Shoulder			L_Shoulder			R_Sternum			L_Sternum			R_humerus			R_elbow_med			R_elbow_lat			R_forearm			R_wrist_radius			R_wrist_ulna			L_humerus			L_elbow_med			L_elbow_lat			L_forearm			L_wrist_radius			L_wrist_ulna			R_HJC			L_HJC			R_HJC_reg			L_HJC_reg			
		X1	Y1	Z1	X2	Y2	Z2	X3	Y3	Z3	X4	Y4	Z4	X5	Y5	Z5	X6	Y6	Z6	X7	Y7	Z7	X8	Y8	Z8	X9	Y9	Z9	X10	Y10	Z10	X11	Y11	Z11	X12	Y12	Z12	X13	Y13	Z13	X14	Y14	Z14	X15	Y15	Z15	X16	Y16	Z16	X17	Y17	Z17	X18	Y18	Z18	X19	Y19	Z19	X20	Y20	Z20	X21	Y21	Z21	X22	Y22	Z22	X23	Y23	Z23	X24	Y24	Z24	X25	Y25	Z25	X26	Y26	Z26	X27	Y27	Z27	X28	Y28	Z28	X29	Y29	Z29	X30	Y30	Z30	X31	Y31	Z31	X32	Y32	Z32	X33	Y33	Z33	X34	Y34	Z34	X35	Y35	Z35	X36	Y36	Z36	X37	Y37	Z37	X38	Y38	Z38	X39	Y39	Z39	X40	Y40	Z40	X41	Y41	Z41	X42	Y42	Z42	X43	Y43	Z43	X44	Y44	Z44	X45	Y45	Z45	X46	Y46	Z46	X47	Y47	Z47	X48	Y48	Z48	X49	Y49	Z49	X50	Y50	Z50	X51	Y51	Z51	

241	2.40000000	-261.51406	709.52462	-346.52191	-227.21578	604.53859	-331.13499	-290.63579	324.78211	-323.88369	-324.37594	329.99476	-386.59122	-246.94821	200.41564	-285.04708	-194.42350	192.58871	-309.98419	-274.51664	718.84173	-806.39020	-229.48831	613.62611	-793.72646	-337.00573	345.72112	-834.47485	-365.57718	346.29544	-777.90939	-297.09279	213.92041	-875.61508	-240.27226	198.34018	-842.98303	-229.33326	494.13873	-324.10924	-296.51220	605.80816	-301.72034	-310.83885	494.55523	-309.55100	-297.64872	648.76570	-842.86102	-316.78259	529.39523	-866.24675	-165.35799	1007.32349	-392.11968	-163.87290	901.46895	-369.80319	-212.62931	880.62227	-329.87305	-273.14966	1008.06288	-359.88750	-267.04229	894.47302	-336.58086	-209.48830	1007.78686	-783.40577	-197.64106	873.92395	-805.98040	-320.82562	1009.07155	-788.24966	-307.29326	868.97211	-805.97154	-128.40040	1154.66367	-462.17795	-305.14650	1229.06274	-510.25247	-153.62011	1169.77483	-704.82939	-321.16524	1235.87798	-623.71490	-308.28238	1679.60580	-560.11587	-251.40245	1694.10110	-444.14663	-243.10558	1706.41019	-684.11219	-176.51354	1637.26594	-554.94802	-180.83258	1645.57340	-586.77963	-286.67632	1656.88623	-332.06142	-401.80439	1494.06136	-263.61671	-427.25056	1560.59693	-242.22340	-486.83625	1535.83578	-134.68324	-536.22953	1501.39282	-48.19158	-563.85201	1495.06839	-70.84199	-273.01598	1647.91280	-816.70607	-414.47413	1514.33965	-877.22630	-405.64520	1574.05767	-919.24394	-416.64662	1540.40207	-1014.08261	-466.67943	1467.43637	-1113.32182	-489.29159	1492.01483	-1113.31568	-230.13712	1099.68846	-481.67209	-244.95353	1106.34942	-670.35192	-211.23806	1100.32651	-488.31873	-233.74978	1109.90460	-647.77269	
242	2.41000000	-259.85112	690.46299	-345.32556	-225.75940	585.27409	-330.27571	-292.05441	306.09807	-321.97347	-326.97679	311.28414	-384.20750	-247.82019	181.14260	-284.27351	-196.07557	172.75977	-311.00269	-273.72873	699.29466	-806.11506	-228.86014	593.60891	-793.68596	-338.53773	326.25240	-834.39207	-367.44234	326.17803	-777.89723	-297.47113	194.78457	-875.91141	-240.45644	179.65784	-843.14205	-229.15062	474.96554	-323.23258	-294.71021	587.22555	-300.05212	-310.44481	476.08935	-307.92288	-296.74611	629.24894	-842.62098	-316.82027	509.92685	-865.97594	-163.64981	988.07478	-391.99982	-162.07250	882.21153	-369.57094	-210.66106	861.43794	-329.20201	-271.04965	988.87643	-358.95768	-265.04853	875.44960	-335.79592	-209.01217	988.41551	-782.80926	-197.01254	854.57659	-805.56813	-320.37558	989.71382	-788.41581	-306.66649	849.50600	-805.84526	-128.05518	1135.95908	-462.24344	-305.37682	1209.94041	-509.50333	-153.84322	1150.70820	-703.78929	-321.01044	1217.24125	-622.37833	-309.29354	1659.65342	-559.37643	-252.21005	1673.77484	-443.22386	-243.85313	1686.64426	-683.77045	-178.17613	1616.69775	-555.18753	-182.18119	1626.30445	-587.29554	-289.50019	1635.45424	-331.76645	-408.30266	1472.58747	-268.81632	-433.37398	1538.75236	-246.36223	-495.38095	1512.69527	-140.56923	-546.64677	1476.96591	-56.14598	-573.92101	1471.55924	-79.05986	-276.36313	1626.30954	-815.62712	-420.17373	1492.62262	-870.73729	-411.15661	1551.33621	-914.28322	-424.68531	1515.84265	-1008.00146	-477.58790	1441.37755	-1104.73727	-499.64103	1466.26981	-1104.54949	-229.88481	1080.79787	-480.90745	-245.14867	1087.47051	-669.55133	-211.12664	1080.94309	-488.70336	-233.11752	1091.21362	-647.48042	
243	2.42000000	-257.90507	670.44311	-344.12103	-224.12972	564.94783	-329.69644	-293.58263	286.47539	-320.29716	-329.34094	291.49635	-382.10676	-249.66228	160.72309	-283.86756	-198.65443	151.98915	-311.75955	-272.75757	678.83684	-805.85460	-228.08727	572.61974	-793.82730	-339.78138	305.78167	-834.21058	-368.82417	305.28464	-777.72738	-297.73872	174.37595	-875.64127	-240.51240	159.88484	-842.70179	-228.92326	454.76973	-322.49057	-292.82127	567.73843	-298.65990	-309.96604	456.70741	-306.73936	-295.67842	608.79295	-842.44735	-316.84638	489.66358	-865.95119	-161.87039	967.90697	-391.81037	-160.07497	862.00026	-369.43218	-208.48114	841.24186	-328.67719	-269.01664	968.71028	-357.99328	-262.82330	855.32805	-335.08259	-208.38302	968.12976	-782.01956	-195.96001	834.36184	-805.08080	-319.76962	969.28649	-788.56512	-305.62329	828.95493	-805.84488	-128.05304	1116.37157	-462.25158	-305.97609	1189.69503	-508.80492	-154.27354	1130.74444	-702.89713	-321.34914	1197.19871	-621.24124	-310.22525	1638.89946	-558.64955	-252.73147	1652.33241	-442.12865	-244.30652	1665.91582	-683.70261	-179.17538	1595.39284	-554.74409	-183.51216	1605.69213	-587.69134	-291.81235	1612.71213	-331.51314	-414.54360	1450.15397	-274.28402	-438.81856	1515.94889	-250.51527	-503.08139	1488.67149	-146.49317	-556.69900	1452.12351	-63.78927	-583.25394	1447.48056	-87.47396	-279.60948	1603.73172	-814.68880	-425.58025	1470.08141	-863.99365	-416.40489	1527.60918	-909.23321	-432.46159	1490.24459	-1001.70543	-488.12720	1414.35001	-1095.89285	-509.74848	1439.54008	-1095.60318	-229.80966	1060.85094	-480.20315	-245.45617	1067.44832	-668.81802	-211.18553	1060.81756	-488.85866	-232.81957	1071.37744	-647.08554	
244	2.43000000	-255.45248	649.44388	-343.10325	-222.05755	543.33217	-329.34370	-295.54471	265.82172	-319.65324	-331.94166	270.92963	-380.82838	-252.51645	139.59146	-283.90865	-202.04991	130.46431	-312.49533	-271.42741	657.40524	-805.75288	-227.00866	550.75037	-794.01541	-340.69635	284.44682	-833.69243	-369.91988	283.71270	-777.29971	-298.01790	153.05756	-874.86395	-240.73850	139.26158	-841.81735	-228.27150	433.27054	-322.25453	-290.47529	547.12348	-297.57434	-309.12110	436.38306	-305.56654	-294.40206	587.44268	-842.45863	-316.52292	468.37077	-865.80048	-160.16021	946.90873	-391.51787	-157.86529	840.56930	-369.77293	-206.17735	820.05662	-328.37769	-267.09404	947.54123	-357.01328	-260.49354	834.10895	-334.35539	-207.66659	946.85003	-780.93572	-194.61889	813.24634	-804.38653	-318.98477	947.69140	-788.58544	-304.19573	807.37856	-805.81951	-128.37668	1096.02297	-461.88660	-306.75679	1168.17945	-508.04621	-154.98161	1109.79209	-702.56565	-322.29692	1175.78089	-620.53600	-310.96751	1617.32495	-557.99248	-252.81455	1629.73869	-440.91003	-244.53739	1644.20994	-683.81290	-180.11765	1573.05179	-554.44878	-184.70233	1583.78270	-588.03307	-293.51845	1588.56897	-331.24721	-420.48844	1426.68118	-280.01125	-443.45088	1492.19038	-254.62934	-509.85731	1463.67242	-152.50373	-566.24739	1426.84270	-70.66015	-591.73116	1422.74374	-96.21605	-282.63109	1580.10346	-813.62147	-430.63051	1446.59833	-857.12710	-421.40763	1502.77645	-903.98677	-439.69803	1463.69119	-995.59083	-498.19464	1386.29343	-1086.59489	-519.55659	1411.92815	-1086.19362	-229.84487	1039.88503	-479.55228	-245.87786	1046.19823	-668.14444	-211.19799	1039.52041	-488.54318	-233.05483	1050.21169	-646.75728	
